<svg xmlns="http://www.w3.org/2000/svg" viewBox="0 0 124.88 46.73"><defs><style>.cls-1{fill:#fff;}</style></defs><title>fint</title><g id="レイヤー_2" data-name="レイヤー 2"><g id="レイヤー_1-2" data-name="レイヤー 1"><path class="cls-1" d="M0,0H29V5.15H5.54V20.59H27.32v5.15H5.54v21H0Z"/><path class="cls-1" d="M38.54,3.76a3.66,3.66,0,0,1,1.09-2.64,3.74,3.74,0,0,1,5.34,0,3.66,3.66,0,0,1,1.09,2.64A3.61,3.61,0,0,1,42.3,7.52a3.69,3.69,0,0,1-2.71-1A3.69,3.69,0,0,1,38.54,3.76Zm1.19,12.08h5.14V46.73H39.73Z"/><path class="cls-1" d="M58.31,23.17c0-1.41,0-2.73-.13-4s-.13-2.36-.13-3.37h4.88c0,.84,0,1.67.07,2.51s.06,1.69.06,2.57h.13a9.2,9.2,0,0,1,1.49-2.18A10.89,10.89,0,0,1,67,16.86a12.17,12.17,0,0,1,3-1.32,12.3,12.3,0,0,1,3.56-.49,13.73,13.73,0,0,1,5.25.92,10,10,0,0,1,3.66,2.58,10.52,10.52,0,0,1,2.15,4,18,18,0,0,1,.69,5.11V46.73H80.09V28.18A9.86,9.86,0,0,0,78.37,22,6.3,6.3,0,0,0,73,19.8a10.06,10.06,0,0,0-4.32.86,7.47,7.47,0,0,0-3,2.44A10.74,10.74,0,0,0,64,26.86a19.5,19.5,0,0,0-.56,4.82v15H58.31Z"/><path class="cls-1" d="M124.88,5.15H109.43V46.73h-5.54V5.15H88.45V0h36.43Z"/></g></g></svg>